<svg width="217" height="40" viewBox="0 0 217 40" fill="none" xmlns="http://www.w3.org/2000/svg">
<path d="M80.4966 0.551741C78.1977 0.551741 77.5172 0.275879 75.6414 0.275879V1.10347C77.0759 1.10347 79.8299 1.32415 79.1724 3.0345L67.0345 34.0966L59.9172 16.6253L65.4345 3.05289C66.0966 1.39772 67.8621 1.12186 69.2966 1.12186V0.275879C67.9724 0.275879 67.1448 0.551741 65.0483 0.551741C62.9517 0.551741 62.4 0.275879 60.7448 0.275879V1.10347C62.0138 1.10347 64.3862 1.37933 63.7241 3.0345L59.0897 14.5288L54.4552 3.0345C53.7931 1.37933 56 1.10347 57.1034 1.10347V0.275879C56 0.275879 54.5655 0.551741 52.2483 0.551741C50.3724 0.551741 49.0299 0.275879 47.8897 0.275879V1.10347C49.1035 1.10347 50.4828 1.4345 51.1448 3.0345L57.269 18.0966L50.7586 34.0966L38.4552 3.0345C37.7931 1.32415 40.331 1.10347 41.6736 1.10347V0.275879C40.4598 0.275879 38.8598 0.551741 36.2667 0.551741C34.1839 0.551741 32.7126 0.285074 31.4023 0.275879H29.4897C28.1931 0.275879 26.8828 0.551741 24.8276 0.551741C22.4 0.551741 20.6897 0.275879 19.4207 0.275879V1.10347C21.6828 1.10347 22.7862 1.65519 22.0138 2.94255C20.9103 4.78163 10.4828 14.8598 6.95172 18.3908C6.73103 18.6115 6.49195 18.8506 6.28966 18.8506C6.08736 18.8506 6.06897 18.5747 6.06897 18.3908V3.80691C6.06897 1.37933 8 1.10347 9.10345 1.10347V0.275879C8 0.275879 6.4 0.551741 4.57931 0.551741C2.64828 0.551741 1.10345 0.275879 0 0.275879V1.10347C1.10345 1.10347 3.03448 1.37933 3.03448 3.80691V35.8621C3.03448 38.3448 1.10345 38.6207 0 38.6207V39.4483C1.10345 39.4483 2.70345 39.1724 4.52414 39.1724C6.45517 39.1724 8 39.4483 9.12184 39.4483V38.6207C8.01839 38.6207 6.08736 38.3448 6.08736 35.8621V20.1379C6.08736 19.9724 6.08736 19.8069 6.30805 19.8069C6.52874 19.8069 6.69425 19.9724 6.91494 20.1931C9.67356 22.9517 20.9287 35.1448 22.1425 36.6897C23.3563 38.2345 22.0322 38.4552 19.8805 38.6207V39.4483C21.0943 39.4483 23.3563 39.1724 25.6736 39.1724C27.9908 39.1724 30.0874 39.4483 31.0805 39.4483V38.6207C29.2898 38.6277 27.5674 37.9348 26.2805 36.6897C24.2207 34.7035 13.5724 22.9885 9.98621 19.3104C9.52644 18.8506 9.32414 18.7035 9.32414 18.4828C9.32414 18.2621 9.48966 18.0966 9.71035 17.8759C14.0138 13.6276 23.2276 4.08278 24.6621 2.92415C26.0136 1.7739 27.7243 1.13157 29.4988 1.10806H31.4115C32.8322 1.10806 34.492 1.41151 35.1448 3.0391L49.8207 39.7288H50.2805L58.1517 20.2299L66.0965 39.7242H66.5563L80.9011 3.0345C81.5632 1.37933 83.3287 1.10347 84.7586 1.10347V0.275879C83.4161 0.275879 82.5885 0.551741 80.4966 0.551741Z" fill="black"/>
<path fill-rule="evenodd" clip-rule="evenodd" d="M106.722 0C95.2461 0 86.8599 8.36782 86.8599 19.8621C86.8599 31.3379 95.2461 39.7241 106.722 39.7241C118.198 39.7241 126.584 31.3379 126.584 19.8621C126.584 8.38621 118.198 0 106.722 0ZM123.366 21.0207C123.366 30.9885 116.69 38.3448 107.586 38.3448C97.5081 38.3448 90.0599 30.0138 90.0599 18.7034C90.0599 8.73563 96.7357 1.37931 105.839 1.37931C115.936 1.37931 123.384 9.71034 123.366 21.0207Z" fill="black"/>
<path d="M211.77 0.5517C210.115 0.5517 208.625 0.275838 207.356 0.275838V1.10342C208.791 1.10342 210.938 1.37929 210.938 3.64136V34.023L183.448 2.97929C183.448 1.82067 184.772 1.10342 186.538 1.10342V0.275838C184.441 0.275838 182.4 0.5517 179.751 0.5517C176.91 0.5517 175.945 0.289631 174.018 0.275838H171.678C170.473 0.303424 169.158 0.547102 167.503 0.547102C165.848 0.547102 164.358 0.27124 163.089 0.27124V1.10342C164.524 1.10342 166.676 1.37929 166.676 3.64136V34.023L139.218 2.97929C139.218 1.82067 140.542 1.10342 142.308 1.10342V0.275838C140.211 0.275838 138.17 0.5517 135.522 0.5517C132.597 0.5517 131.66 0.275838 129.618 0.275838V1.10342C131.273 1.10342 133.977 1.21377 137.563 5.73791V35.862C137.563 38.3448 135.853 38.6207 133.977 38.6207V39.4483C135.246 39.4483 136.956 39.1724 138.391 39.1724C139.991 39.1724 141.535 39.4483 142.804 39.4483V38.6207C140.929 38.6207 139.218 38.3448 139.218 35.862V7.61377L167.577 39.7241H168.349V3.67814C168.349 1.47124 170.4 1.11722 171.738 1.08503H174.037C175.706 1.08503 178.34 1.36549 181.793 5.71952V35.862C181.793 38.3448 180.083 38.6207 178.207 38.6207V39.4483C179.476 39.4483 181.186 39.1724 182.62 39.1724C184.22 39.1724 185.765 39.4483 187.034 39.4483V38.6207C185.158 38.6207 183.448 38.3448 183.448 35.862V7.61377L211.82 39.7241H212.597V3.67814C212.597 1.37929 214.855 1.08503 216.184 1.08503V0.275838C214.91 0.275838 213.535 0.5517 211.77 0.5517Z" fill="black"/>
</svg>
